<svg xmlns="http://www.w3.org/2000/svg" width="202.306" height="33.677" viewBox="0 0 202.306 33.677">
  <g id="Grupo_8" data-name="Grupo 8" transform="translate(-859 -524)">
    <g id="Grupo_7" data-name="Grupo 7" transform="translate(720.592 279.018)">
      <g id="Grupo_2" data-name="Grupo 2">
        <g id="Grupo_1" data-name="Grupo 1">
          <path id="Caminho_1" data-name="Caminho 1" d="M162.322,277.041l-1.795-.546-1.446,2.164h6.945l1.182-5.618-5.768-1.48Z" fill="#333"/>
          <path id="Caminho_2" data-name="Caminho 2" d="M142.342,267.753l-1.262,9.607-1.551-.747-1.12,2.046h6.4l2.567-6.772Z" fill="#333"/>
          <path id="Caminho_3" data-name="Caminho 3" d="M176.281,250.292l-17.4,2.14a1.823,1.823,0,0,0-1.526,1.258s11.862-.745,14.8-.892c2.75-.139,3.737-.7,4.132-2.506" fill="#333"/>
          <path id="Caminho_4" data-name="Caminho 4" d="M156.619,255.868l13.567-.148c1.757.051,2.52,0,3.2-1.549l-16.352.587Z" fill="#333"/>
          <path id="Caminho_5" data-name="Caminho 5" d="M156.863,249.633a3.194,3.194,0,0,0-2.344,1.822l-2.423,4.971-1.14-2.705,1.192-1.163v-2.466l-1.009-.258-2.009.495-1.7-.785-1.875.214-1.841-.214-1.7.785L140,249.834l-1.01.258v2.466l1.193,1.163-.72,4.075,2.029,7.423,7.861,6.663-.205,5.136-1.635-.523-1.345,2.164h6.862l3.127-9.717,12.676,3.165,2.577,4.935-1.525-.5-1.184,2.119h5.912l1.262-1.615-1.173-6.036.006-8.037a1.482,1.482,0,0,0,1.481-1.481v-.325h-1.48v0l-3-2.417a7.615,7.615,0,0,0-4.807-1.679l-10.74-.055-2.238,2.325,2.6-6.759a2.077,2.077,0,0,1,1.633-1.255c2.2-.3,5.934-1.2,16.4-2.448,2.833-.337,3.738-2.259,3.764-3.495ZM147,255.927l-.046.031a.435.435,0,0,1-.58-.08l-.7-.988a.118.118,0,0,1,.118-.118.54.54,0,0,0,.541-.54v-.546h-1.629v.546a.541.541,0,0,0,.542.54.117.117,0,0,1,.116.118l-.7.988a.435.435,0,0,1-.58.08l-.045-.031a.661.661,0,0,1-.279-.606l.177-1.811a.934.934,0,0,1,.036-.251.609.609,0,0,1,.254-.319c.412-.276,1.289-1,1.289-1h0s.879.722,1.29,1a.591.591,0,0,1,.25.316.86.86,0,0,1,.038.252l.177,1.811a.664.664,0,0,1-.279.606" fill="#333"/>
          <path id="Caminho_6" data-name="Caminho 6" d="M142.394,245.441v3.289h6.267v-3.289a.232.232,0,0,0,.179-.224.235.235,0,0,0-.471,0,.232.232,0,0,0,.124.2h0l-.552.973a.485.485,0,0,1-.862-.02l-.413-.959a.232.232,0,0,0,.116-.2.236.236,0,1,0-.347.2l-.434.956a.529.529,0,0,1-.463.291h-.02a.529.529,0,0,1-.462-.291l-.435-.956a.231.231,0,0,0,.124-.2.236.236,0,0,0-.471,0,.231.231,0,0,0,.117.2l-.414.959a.485.485,0,0,1-.862.02l-.552-.973a.231.231,0,0,0,.123-.2.235.235,0,0,0-.471,0,.232.232,0,0,0,.18.224" fill="#333"/>
        </g>
      </g>
      <g id="Grupo_6" data-name="Grupo 6">
        <g id="Grupo_5" data-name="Grupo 5">
          <g id="Grupo_3" data-name="Grupo 3">
            <path id="Caminho_7" data-name="Caminho 7" d="M229.2,252.075H194.743s-6.934-.173-6.934,6.991c0,0-.307,7.387,6.957,7.387h6.685s1.032-.054,1.032.713a.881.881,0,0,1-.982,1.107H188.4a.241.241,0,0,0-.271.282v5.409s.019.276.251.276h14.1s6.472.581,6.757-6.763c0,0,.387-7.389-6.757-7.389h-6.829s-.888.117-.888-1.05a.872.872,0,0,1,.888-1h15.874a.35.35,0,0,1,.335.348v15.441s-.012.334.3.352h5.951a.347.347,0,0,0,.253-.34V258.452s-.034-.41.288-.41h5.8a3.031,3.031,0,0,0,2.375-1.267l2.363-4.7" fill="#333"/>
            <path id="Caminho_8" data-name="Caminho 8" d="M295.05,273.867V269.1c0-.363-.3-.32-.3-.32h-8.487s-.868.058-.868-1.2v-15.2c0-.375-.292-.337-.292-.337h-5.662c-.317,0-.3.368-.3.368v18.13a3.9,3.9,0,0,0,4.188,3.7h11.386a.354.354,0,0,0,.333-.372" fill="#333"/>
            <path id="Caminho_9" data-name="Caminho 9" d="M325.831,261.636l5.893-9.314a.637.637,0,0,1,.492-.284h6.332a.146.146,0,0,1,.1.236l-9.06,14.013a3.874,3.874,0,0,0-.827,2.342v5.284a.3.3,0,0,1-.3.33h-5.612a.306.306,0,0,1-.312-.33v-5.455a3.618,3.618,0,0,0-.588-1.994l-5.69-8.761a.272.272,0,0,0-.22-.131H304.171c-.287,0-.282.3-.282.3v2.311s-.01.313.272.313h10.12s.309-.013.309.38v4.508s.021.374-.32.374H304.241c-.3,0-.3.343-.3.343v2.24s.038.342.294.342H315.24a.345.345,0,0,1,.321.389l.014,4.784s.011.384-.347.384H299.794c-2.7-.062-2.772-3.047-2.772-3.047V252.43s-.012-.392.293-.392h22.174a.352.352,0,0,1,.272.184l5.8,9.4s.1.181.27.013" fill="#333"/>
            <path id="Caminho_10" data-name="Caminho 10" d="M253.461,273.9s-.008.33.289.334h5.576a.307.307,0,0,0,.3-.334V261.738s-.005-.115.075-.136c0,0,.067-.046.162.054l6.2,9.5c2.343,3.3,5.206,3.056,5.206,3.056h5.19V252.447c0-.421-.342-.406-.342-.406h-5.59c-.3,0-.285.406-.285.406v12.61c-.015.185-.107.2-.107.2-.1.029-.178-.1-.178-.1L263.25,254.74a5.624,5.624,0,0,0-4.581-2.69h-5.208Z" fill="#333"/>
            <path id="Caminho_11" data-name="Caminho 11" d="M241.37,254.627a5.7,5.7,0,0,0-5.273-2.56,5.632,5.632,0,0,0-5.28,2.56c-3.533,6.706-10.173,19.612-10.173,19.612h7.042c.272-.511.918-1.776,1.736-3.4h6.994a2.993,2.993,0,0,0,2.923-1.806c.4-.792.915-1.8,1.267-2.5,1.729,3.462,3.408,6.8,3.894,7.713,3.235-.019,2.767-.019,7.043,0,0,0-6.766-13.431-10.173-19.612m-9.357,11.037c2.073-4.151,4.084-8.2,4.084-8.2s2.006,4.052,4.08,8.2Z" fill="#333"/>
          </g>
          <g id="Grupo_4" data-name="Grupo 4">
            <path id="Caminho_12" data-name="Caminho 12" d="M337.8,270.481h.8c.443,0,.861.143.861.662a.593.593,0,0,1-.536.626l.614,1.02h-.5l-.535-.978h-.3v.978h-.41Zm.73.978c.231,0,.5-.019.5-.32,0-.274-.255-.3-.465-.3h-.357v.625Z" fill="#333"/>
            <path id="Caminho_13" data-name="Caminho 13" d="M338.565,273.8a2.149,2.149,0,1,1,2.149-2.149,2.153,2.153,0,0,1-2.149,2.149m0-3.939a1.79,1.79,0,1,0,1.79,1.79,1.791,1.791,0,0,0-1.79-1.79" fill="#333"/>
          </g>
        </g>
      </g>
    </g>
  </g>
</svg>
